# xmcd
#
# Track frame offsets: 
#        150
#        17241
#        50431
#        71347
#        102017
#        125613
#
# Disc length: 2055 seconds
#
# Revision: 0
# Processed by: cddbd v1.5.2PL0 Copyright (c) Steve Scherf et al.
# Submitted via: ExactAudioCopy v1.0b4
#
DISCID=49080506
DTITLE=Deadwood - Roadmaster
DYEAR=2014
DGENRE=Blues
TTITLE0=Thousand Damn Pieces
TTITLE1=Desert Heart
TTITLE2=Pathology
TTITLE3=Pathology 2
TTITLE4=Self-destroyer
TTITLE5=Roadmaster
EXTD=
EXTT0=
EXTT1=
EXTT2=
EXTT3=
EXTT4=
EXTT5=
PLAYORDER=
